<svg width="49" height="48" viewBox="0 0 49 48"  xmlns="http://www.w3.org/2000/svg">
<path d="M24.5 4C21.8736 4 19.2728 4.51732 16.8463 5.52241C14.4198 6.5275 12.215 8.00069 10.3579 9.85786C6.60714 13.6086 4.5 18.6957 4.5 24C4.5 32.84 10.24 40.34 18.18 43C19.18 43.16 19.5 42.54 19.5 42V38.62C13.96 39.82 12.78 35.94 12.78 35.94C11.86 33.62 10.56 33 10.56 33C8.74 31.76 10.7 31.8 10.7 31.8C12.7 31.94 13.76 33.86 13.76 33.86C15.5 36.9 18.44 36 19.58 35.52C19.76 34.22 20.28 33.34 20.84 32.84C16.4 32.34 11.74 30.62 11.74 23C11.74 20.78 12.5 19 13.8 17.58C13.6 17.08 12.9 15 14 12.3C14 12.3 15.68 11.76 19.5 14.34C21.08 13.9 22.8 13.68 24.5 13.68C26.2 13.68 27.92 13.9 29.5 14.34C33.32 11.76 35 12.3 35 12.3C36.1 15 35.4 17.08 35.2 17.58C36.5 19 37.26 20.78 37.26 23C37.26 30.64 32.58 32.32 28.12 32.82C28.84 33.44 29.5 34.66 29.5 36.52V42C29.5 42.54 29.82 43.18 30.84 43C38.78 40.32 44.5 32.84 44.5 24C44.5 21.3736 43.9827 18.7728 42.9776 16.3463C41.9725 13.9198 40.4993 11.715 38.6421 9.85786C36.785 8.00069 34.5802 6.5275 32.1537 5.52241C29.7272 4.51732 27.1264 4 24.5 4Z" fill="black"/>
</svg>
