<svg width="96" height="96" viewBox="0 0 96 96" fill="none" xmlns="http://www.w3.org/2000/svg">
<mask id="mask0_14_447" style="mask-type:alpha" maskUnits="userSpaceOnUse" x="10" y="14" width="77" height="68">
<path fill-rule="evenodd" clip-rule="evenodd" d="M10 36.3671C10 24.0141 19.638 14 31.5272 14H65.4728C77.362 14 87 24.0141 87 36.3671C87 43.4386 83.8416 49.7437 78.9104 53.8425H78.9418L51.9608 81.4571C50.839 82.6051 48.8888 81.8116 48.8888 80.207L48.8888 58.7342H31.5272C19.638 58.7342 10 48.7201 10 36.3671ZM20.2127 36.0014C20.2127 29.7989 25.0519 24.7708 31.0215 24.7708H63.6197C69.5892 24.7708 74.4285 29.7989 74.4285 36.0014C74.4285 42.2039 69.5892 47.232 63.6197 47.232H31.0215C25.0519 47.232 20.2127 42.2039 20.2127 36.0014Z" fill="#38BDF8"/>
</mask>
<g mask="url(#mask0_14_447)">
<path d="M48.8888 53.8424H78.9418L51.9608 81.457C50.8391 82.6051 48.8888 81.8115 48.8888 80.207L48.8888 53.8424Z" fill="#38BDF8"/>
<g filter="url(#filter0_d_14_447)">
<path fill-rule="evenodd" clip-rule="evenodd" d="M31.5272 14C19.638 14 10 24.0141 10 36.3671C10 48.7201 19.638 58.7342 31.5272 58.7342H65.4728C77.362 58.7342 87 48.7201 87 36.3671C87 24.0141 77.362 14 65.4728 14H31.5272ZM32.2485 24.3398C26.023 24.3398 20.9761 29.5836 20.9761 36.0521C20.9761 42.5205 26.023 47.7643 32.2486 47.7643H64.7515C70.9771 47.7643 76.0239 42.5205 76.0239 36.0521C76.0239 29.5836 70.977 24.3398 64.7515 24.3398H32.2485Z" fill="#38BDF8"/>
</g>
</g>
<defs>
<filter id="filter0_d_14_447" x="-4" y="14" width="91" height="52.7341" filterUnits="userSpaceOnUse" color-interpolation-filters="sRGB">
<feFlood flood-opacity="0" result="BackgroundImageFix"/>
<feColorMatrix in="SourceAlpha" type="matrix" values="0 0 0 0 0 0 0 0 0 0 0 0 0 0 0 0 0 0 127 0" result="hardAlpha"/>
<feOffset dx="-10" dy="4"/>
<feGaussianBlur stdDeviation="2"/>
<feComposite in2="hardAlpha" operator="out"/>
<feColorMatrix type="matrix" values="0 0 0 0 0 0 0 0 0 0 0 0 0 0 0 0 0 0 0.25 0"/>
<feBlend mode="normal" in2="BackgroundImageFix" result="effect1_dropShadow_14_447"/>
<feBlend mode="normal" in="SourceGraphic" in2="effect1_dropShadow_14_447" result="shape"/>
</filter>
</defs>
</svg>
