<svg width="77" height="68" viewBox="0 0 77 68" fill="none" xmlns="http://www.w3.org/2000/svg">
<mask id="mask0_16_659" style="mask-type:alpha" maskUnits="userSpaceOnUse" x="0" y="0" width="77" height="68">
<path fill-rule="evenodd" clip-rule="evenodd" d="M0 22.3671C0 10.0141 9.63804 0 21.5272 0H55.4728C67.362 0 77 10.0141 77 22.3671C77 29.4386 73.8416 35.7437 68.9104 39.8425H68.9418L41.9608 67.4571C40.839 68.6051 38.8888 67.8116 38.8888 66.207L38.8888 44.7342H21.5272C9.63803 44.7342 0 34.7201 0 22.3671ZM10.2127 22.0014C10.2127 15.7989 15.0519 10.7708 21.0215 10.7708H53.6197C59.5892 10.7708 64.4285 15.7989 64.4285 22.0014C64.4285 28.2039 59.5892 33.232 53.6197 33.232H21.0215C15.0519 33.232 10.2127 28.2039 10.2127 22.0014Z" fill="#38BDF8"/>
</mask>
<g mask="url(#mask0_16_659)">
<path d="M38.8888 39.8424H68.9418L41.9608 67.457C40.8391 68.6051 38.8888 67.8115 38.8888 66.207L38.8888 39.8424Z" fill="#38BDF8"/>
<g filter="url(#filter0_d_16_659)">
<path fill-rule="evenodd" clip-rule="evenodd" d="M21.5272 0C9.63804 0 9.14588e-08 10.0141 9.14588e-08 22.3671C9.14588e-08 34.7201 9.63803 44.7342 21.5272 44.7342H55.4728C67.362 44.7342 77 34.7201 77 22.3671C77 10.0141 67.362 0 55.4728 0H21.5272ZM22.2485 10.3398C16.023 10.3398 10.9761 15.5836 10.9761 22.0521C10.9761 28.5205 16.023 33.7643 22.2486 33.7643H54.7515C60.9771 33.7643 66.0239 28.5205 66.0239 22.0521C66.0239 15.5836 60.977 10.3398 54.7515 10.3398H22.2485Z" fill="#38BDF8"/>
</g>
</g>
<defs>
<filter id="filter0_d_16_659" x="-14" y="0" width="91" height="52.7341" filterUnits="userSpaceOnUse" color-interpolation-filters="sRGB">
<feFlood flood-opacity="0" result="BackgroundImageFix"/>
<feColorMatrix in="SourceAlpha" type="matrix" values="0 0 0 0 0 0 0 0 0 0 0 0 0 0 0 0 0 0 127 0" result="hardAlpha"/>
<feOffset dx="-10" dy="4"/>
<feGaussianBlur stdDeviation="2"/>
<feComposite in2="hardAlpha" operator="out"/>
<feColorMatrix type="matrix" values="0 0 0 0 0 0 0 0 0 0 0 0 0 0 0 0 0 0 0.25 0"/>
<feBlend mode="normal" in2="BackgroundImageFix" result="effect1_dropShadow_16_659"/>
<feBlend mode="normal" in="SourceGraphic" in2="effect1_dropShadow_16_659" result="shape"/>
</filter>
</defs>
</svg>
