<svg width="736" height="687" viewBox="0 0 736 687" fill="none" xmlns="http://www.w3.org/2000/svg">
<circle cx="311" cy="370" r="254" fill="url(#paint0_radial_14_486)"/>
<mask id="mask0_14_486" style="mask-type:alpha" maskUnits="userSpaceOnUse" x="200" y="284" width="225" height="191">
<path fill-rule="evenodd" clip-rule="evenodd" d="M424.763 347.526C424.763 312.877 396.675 284.789 362.026 284.789H263.099C228.451 284.789 200.363 312.877 200.363 347.526C200.363 367.174 209.395 384.712 223.534 396.215H223.127L298.463 473.378C301.596 476.586 307.041 474.369 307.041 469.885L307.041 410.262H362.026C396.675 410.262 424.763 382.174 424.763 347.526ZM395 346.5C395 329.103 380.897 315 363.5 315H268.5C251.103 315 237 329.103 237 346.5C237 363.897 251.103 378 268.5 378H363.5C380.897 378 395 363.897 395 346.5Z" fill="#38BDF8"/>
</mask>
<g mask="url(#mask0_14_486)">
<path d="M307.041 396.215H223.127L298.464 473.378C301.596 476.586 307.041 474.369 307.041 469.885L307.041 396.215Z" fill="#3890F8"/>
<g filter="url(#filter0_d_14_486)">
<path fill-rule="evenodd" clip-rule="evenodd" d="M362.026 284.789C396.675 284.789 424.763 312.877 424.763 347.526C424.763 382.174 396.675 410.262 362.026 410.262H263.099C228.451 410.262 200.363 382.174 200.363 347.526C200.363 312.877 228.451 284.789 263.099 284.789H362.026ZM359.924 313.791C378.067 313.791 392.775 328.499 392.775 346.642C392.775 364.785 378.067 379.493 359.924 379.493H265.202C247.059 379.493 232.351 364.785 232.351 346.642C232.351 328.499 247.059 313.791 265.202 313.791H359.924Z" fill="#3890F8"/>
</g>
</g>
<circle cx="459.243" cy="277" r="276.719" fill="url(#paint1_radial_14_486)"/>
<mask id="mask1_14_486" style="mask-type:alpha" maskUnits="userSpaceOnUse" x="312" y="206" width="294" height="200">
<path fill-rule="evenodd" clip-rule="evenodd" d="M312.743 277C312.743 237.788 344.531 206 383.743 206H534.743C573.955 206 605.743 237.788 605.743 277C605.743 296.5 597.881 314.164 585.155 326.996H585.157L509.82 404.159C506.688 407.367 501.243 405.15 501.243 400.666L501.243 348H383.743C344.531 348 312.743 316.212 312.743 277ZM346 276.5C346 254.132 364.132 236 386.5 236H527.5C549.868 236 568 254.132 568 276.5C568 298.868 549.868 317 527.5 317H386.5C364.132 317 346 298.868 346 276.5Z" fill="#D9D9D9"/>
</mask>
<g mask="url(#mask1_14_486)">
<path d="M501.243 326.996H585.157L509.82 404.159C506.688 407.367 501.243 405.15 501.243 400.666L501.243 326.996Z" fill="#38BDF8"/>
<g filter="url(#filter1_d_14_486)">
<path fill-rule="evenodd" clip-rule="evenodd" d="M383.743 206C344.531 206 312.743 237.788 312.743 277C312.743 316.212 344.531 348 383.743 348H534.743C573.955 348 605.743 316.212 605.743 277C605.743 237.788 573.955 206 534.743 206H383.743ZM384.743 235C362.099 235 343.743 253.356 343.743 276C343.743 298.644 362.099 317 384.743 317H533.743C556.386 317 574.743 298.644 574.743 276C574.743 253.356 556.386 235 533.743 235H384.743Z" fill="#38BDF8"/>
</g>
</g>
<mask id="mask2_14_486" style="mask-type:alpha" maskUnits="userSpaceOnUse" x="-1" y="438" width="254" height="249">
<path opacity="0.6" d="M51.15 452.6L51.15 679.8" stroke="white" stroke-width="1.5" stroke-linecap="round"/>
<path opacity="0.6" d="M115.15 439L115.15 685.4" stroke="white" stroke-width="1.5" stroke-linecap="round"/>
<path opacity="0.6" d="M179.15 439L179.15 679.8" stroke="white" stroke-width="1.5" stroke-linecap="round"/>
<path opacity="0.6" d="M4 497.45H228" stroke="white" stroke-width="1.5" stroke-linecap="round"/>
<path opacity="0.6" d="M0 561.45H252" stroke="white" stroke-width="1.5" stroke-linecap="round"/>
<path opacity="0.6" d="M3.99496 625.45L239.195 623.872" stroke="white" stroke-width="1.5" stroke-linecap="round"/>
</mask>
<g mask="url(#mask2_14_486)">
<circle cx="171" cy="525" r="171" fill="url(#paint2_radial_14_486)"/>
</g>
<defs>
<filter id="filter0_d_14_486" x="200.363" y="284.789" width="248.399" height="133.472" filterUnits="userSpaceOnUse" color-interpolation-filters="sRGB">
<feFlood flood-opacity="0" result="BackgroundImageFix"/>
<feColorMatrix in="SourceAlpha" type="matrix" values="0 0 0 0 0 0 0 0 0 0 0 0 0 0 0 0 0 0 127 0" result="hardAlpha"/>
<feOffset dx="20" dy="4"/>
<feGaussianBlur stdDeviation="2"/>
<feComposite in2="hardAlpha" operator="out"/>
<feColorMatrix type="matrix" values="0 0 0 0 0 0 0 0 0 0 0 0 0 0 0 0 0 0 0.25 0"/>
<feBlend mode="normal" in2="BackgroundImageFix" result="effect1_dropShadow_14_486"/>
<feBlend mode="normal" in="SourceGraphic" in2="effect1_dropShadow_14_486" result="shape"/>
</filter>
<filter id="filter1_d_14_486" x="288.743" y="206" width="317" height="150" filterUnits="userSpaceOnUse" color-interpolation-filters="sRGB">
<feFlood flood-opacity="0" result="BackgroundImageFix"/>
<feColorMatrix in="SourceAlpha" type="matrix" values="0 0 0 0 0 0 0 0 0 0 0 0 0 0 0 0 0 0 127 0" result="hardAlpha"/>
<feOffset dx="-20" dy="4"/>
<feGaussianBlur stdDeviation="2"/>
<feComposite in2="hardAlpha" operator="out"/>
<feColorMatrix type="matrix" values="0 0 0 0 0 0 0 0 0 0 0 0 0 0 0 0 0 0 0.25 0"/>
<feBlend mode="normal" in2="BackgroundImageFix" result="effect1_dropShadow_14_486"/>
<feBlend mode="normal" in="SourceGraphic" in2="effect1_dropShadow_14_486" result="shape"/>
</filter>
<radialGradient id="paint0_radial_14_486" cx="0" cy="0" r="1" gradientUnits="userSpaceOnUse" gradientTransform="translate(311 370) rotate(90) scale(254)">
<stop stop-color="#3890F8" stop-opacity="0.5"/>
<stop offset="1" stop-color="#3890F8" stop-opacity="0"/>
</radialGradient>
<radialGradient id="paint1_radial_14_486" cx="0" cy="0" r="1" gradientUnits="userSpaceOnUse" gradientTransform="translate(459.243 277) rotate(90) scale(276.719)">
<stop stop-color="#38BDF8" stop-opacity="0.5"/>
<stop offset="1" stop-color="#38BDF8" stop-opacity="0"/>
</radialGradient>
<radialGradient id="paint2_radial_14_486" cx="0" cy="0" r="1" gradientUnits="userSpaceOnUse" gradientTransform="translate(171 525) rotate(90) scale(171 211.911)">
<stop offset="0.536458" stop-color="white"/>
<stop offset="0.963542" stop-color="white" stop-opacity="0"/>
</radialGradient>
</defs>
</svg>
