<svg width="128" height="128" viewBox="0 0 128 128" fill="none" xmlns="http://www.w3.org/2000/svg">
<mask id="mask0_14_447" style="mask-type:alpha" maskUnits="userSpaceOnUse" x="13" y="18" width="103" height="92">
<path fill-rule="evenodd" clip-rule="evenodd" d="M13.3333 48.4895C13.3333 32.0188 26.184 18.6667 42.0362 18.6667H87.2971C103.149 18.6667 116 32.0188 116 48.4895C116 57.9182 111.789 66.325 105.214 71.79H105.256L69.281 108.609C67.7854 110.14 65.185 109.082 65.185 106.943L65.1851 78.3122H42.0362C26.184 78.3122 13.3333 64.9601 13.3333 48.4895ZM26.9502 48.0019C26.9502 39.7319 33.4026 33.0278 41.362 33.0278H84.8262C92.7856 33.0278 99.238 39.7319 99.238 48.0019C99.238 56.2719 92.7856 62.976 84.8262 62.976H41.362C33.4026 62.976 26.9502 56.2719 26.9502 48.0019Z" fill="#38BDF8"/>
</mask>
<g mask="url(#mask0_14_447)">
<path d="M65.1851 71.79H105.256L69.281 108.609C67.7854 110.14 65.185 109.082 65.185 106.943L65.1851 71.79Z" fill="#38BDF8"/>
<g filter="url(#filter0_d_14_447)">
<path fill-rule="evenodd" clip-rule="evenodd" d="M42.0362 18.6667C26.1841 18.6667 13.3333 32.0188 13.3333 48.4895C13.3333 64.9601 26.184 78.3122 42.0362 78.3122H87.2971C103.149 78.3122 116 64.9601 116 48.4895C116 32.0188 103.149 18.6667 87.2971 18.6667H42.0362ZM42.9981 32.4531C34.6973 32.4531 27.9682 39.4448 27.9682 48.0694C27.9682 56.6941 34.6973 63.6857 42.9981 63.6857H86.3353C94.6361 63.6857 101.365 56.6941 101.365 48.0694C101.365 39.4448 94.6361 32.4531 86.3353 32.4531H42.9981Z" fill="#38BDF8"/>
</g>
</g>
<defs>
<filter id="filter0_d_14_447" x="-0.666687" y="18.6667" width="116.667" height="67.6456" filterUnits="userSpaceOnUse" color-interpolation-filters="sRGB">
<feFlood flood-opacity="0" result="BackgroundImageFix"/>
<feColorMatrix in="SourceAlpha" type="matrix" values="0 0 0 0 0 0 0 0 0 0 0 0 0 0 0 0 0 0 127 0" result="hardAlpha"/>
<feOffset dx="-10" dy="4"/>
<feGaussianBlur stdDeviation="2"/>
<feComposite in2="hardAlpha" operator="out"/>
<feColorMatrix type="matrix" values="0 0 0 0 0 0 0 0 0 0 0 0 0 0 0 0 0 0 0.25 0"/>
<feBlend mode="normal" in2="BackgroundImageFix" result="effect1_dropShadow_14_447"/>
<feBlend mode="normal" in="SourceGraphic" in2="effect1_dropShadow_14_447" result="shape"/>
</filter>
</defs>
</svg>
